<svg xmlns="http://www.w3.org/2000/svg" width="259.701" height="43.442" viewBox="0 0 259.701 43.442">
  <g id="LOGO-DYSALES" transform="translate(451.814 -329.272)">
    <path id="Trazado_18" data-name="Trazado 18" d="M-314.293,339.975h-6.379a.46.46,0,0,0-.437.437v14.523a.46.46,0,0,0,.437.436h6.429c5.215,0,8.455-2.949,8.455-7.7C-305.788,343.141-309.285,339.975-314.293,339.975Zm4.808,7.7c0,2.9-1.734,4.555-4.758,4.555h-3.169v-9.111h3.118C-311.418,343.118-309.485,344.948-309.485,347.673Zm17.9,3.254a8.531,8.531,0,0,0-.719-.915,4.779,4.779,0,0,0,3.338-4.609c0-3.3-2.527-5.429-6.438-5.429h-7.009a.46.46,0,0,0-.436.437v14.523a.459.459,0,0,0,.436.437h2.824a.46.46,0,0,0,.437-.437v-4.3h3.047l3.035,4.428a.689.689,0,0,0,.515.312h3.354a.3.3,0,0,0,.336-.311.767.767,0,0,0-.174-.4Zm-1.078-5.523c0,1.379-1.137,2.236-2.967,2.236h-3.522v-4.522h3.522C-293.8,343.118-292.659,343.994-292.659,345.4Zm19.646,7.312v2.168a.561.561,0,0,1-.487.487h-12a.459.459,0,0,1-.437-.437V340.412a.46.46,0,0,1,.437-.437h11.85a.552.552,0,0,1,.487.487v2.169a.552.552,0,0,1-.487.487h-8.59v2.808h7.833a.552.552,0,0,1,.487.487v2.168a.561.561,0,0,1-.487.487h-7.833v3.16h8.741A.552.552,0,0,1-273.013,352.716Zm12.018-12.741h-2.791l-7.146,14.723a.943.943,0,0,0-.115.363.313.313,0,0,0,.336.311h3a.57.57,0,0,0,.651-.4l1.048-2.218h7.194l1.1,2.221a.568.568,0,0,0,.649.4h3a.313.313,0,0,0,.336-.311.95.95,0,0,0-.114-.361Zm.886,9.834h-4.564l1.268-2.605a25.156,25.156,0,0,0,1.014-2.561,25.255,25.255,0,0,0,1.014,2.56Zm26.286-9.4v14.523a.46.46,0,0,1-.437.437h-2.824a.459.459,0,0,1-.437-.437v-8.808a8.831,8.831,0,0,1-.767,1.248l-4.57,6.43-4.6-6.431a9.5,9.5,0,0,1-.74-1.242v8.8a.459.459,0,0,1-.437.437h-2.824a.46.46,0,0,1-.437-.437V340.412a.46.46,0,0,1,.437-.437h2.219a.707.707,0,0,1,.588.309l5.791,8.1,5.791-8.1a.706.706,0,0,1,.588-.309h2.219A.46.46,0,0,1-233.822,340.412Zm23.176.2-6,8.616v5.706a.46.46,0,0,1-.437.437h-2.824a.459.459,0,0,1-.436-.437v-5.706l-6-8.616a.67.67,0,0,1-.149-.352.279.279,0,0,1,.285-.285h3.2a.722.722,0,0,1,.715.36l2.6,3.655a22.391,22.391,0,0,1,1.2,1.935c.187-.332.73-1.279,1.2-1.935l2.6-3.655a.72.72,0,0,1,.714-.359h3.2a.279.279,0,0,1,.285.285A.668.668,0,0,1-210.646,340.612Zm8.737-.637h-2.79l-7.146,14.723a.95.95,0,0,0-.115.363.313.313,0,0,0,.336.311h3a.57.57,0,0,0,.651-.4l1.048-2.218h7.194l1.1,2.221a.569.569,0,0,0,.65.4h3a.313.313,0,0,0,.336-.311.941.941,0,0,0-.114-.361Zm.886,9.834h-4.564l1.268-2.605a25.306,25.306,0,0,0,1.014-2.561,25.252,25.252,0,0,0,1.014,2.56Zm10.309-2.135a4.544,4.544,0,0,0,4.58,4.808c2.179,0,3.7-1.039,3.978-2.712a.54.54,0,0,1,.611-.541h2.522a.53.53,0,0,1,.563.512c0,3.409-3.227,5.883-7.674,5.883-4.8,0-8.278-3.343-8.278-7.95s3.482-7.95,8.278-7.95c4.985,0,7.674,3.174,7.674,6.16a.475.475,0,0,1-.537.462h-2.6c-.329,0-.5-.159-.561-.515a3.743,3.743,0,0,0-3.978-2.964A4.6,4.6,0,0,0-190.713,347.673Zm30.075-7.261v14.523a.46.46,0,0,1-.437.437H-163.9a.459.459,0,0,1-.436-.437V349.7h-7.894v5.236a.46.46,0,0,1-.437.437h-2.824a.46.46,0,0,1-.437-.437V340.412a.46.46,0,0,1,.437-.437h2.824a.46.46,0,0,1,.437.437v6.144h7.894v-6.144a.46.46,0,0,1,.436-.437h2.824A.461.461,0,0,1-160.639,340.412Zm17.071.05v2.169a.552.552,0,0,1-.487.487h-5.312v11.817a.459.459,0,0,1-.436.437h-2.824a.46.46,0,0,1-.437-.437V343.118h-5.312a.552.552,0,0,1-.488-.487v-2.169a.552.552,0,0,1,.488-.487h14.321A.552.552,0,0,1-143.567,340.462Zm-175.716,32.8a.275.275,0,0,1,.315.236c.157.8.834,1.3,2.328,1.3,1.51,0,2.187-.566,2.187-1.243,0-.44-.315-.834-1.258-.912l-2.454-.2c-1.92-.157-2.942-1.038-2.942-2.453,0-1.636,1.432-3.147,4.217-3.147,2.879,0,4.137,1.337,4.137,2.847a.274.274,0,0,1-.3.268h-1.557a.242.242,0,0,1-.283-.236c-.1-.549-.63-1.084-2.014-1.084-1.321,0-2.061.535-2.061,1.227,0,.424.283.739,1.148.8l2.438.2c2.2.189,3.067,1.289,3.067,2.6,0,1.479-1.274,3.13-4.326,3.13-2.879,0-4.468-1.369-4.468-2.925v-.126a.287.287,0,0,1,.3-.283Zm15.749,1.541h-4.593l-.677,1.432c-.094.189-.141.2-.33.2h-1.873a.112.112,0,0,1-.126-.11.512.512,0,0,1,.064-.189l4.435-9.14H-305l4.436,9.14a.524.524,0,0,1,.064.189.112.112,0,0,1-.126.11H-302.5c-.189,0-.236-.016-.33-.2Zm-3.838-1.668h3.115l-.849-1.746a16.26,16.26,0,0,1-.661-1.683h-.094a16.189,16.189,0,0,1-.661,1.683Zm10.683,1.51h4.656a.268.268,0,0,1,.221.221v1.353a.268.268,0,0,1-.221.22h-6.606a.2.2,0,0,1-.189-.189v-9.061a.2.2,0,0,1,.189-.189h1.762a.2.2,0,0,1,.189.189Zm8.842-2.138v2.138h5.537a.268.268,0,0,1,.22.221v1.353a.268.268,0,0,1-.22.22H-289.8a.2.2,0,0,1-.189-.189v-9.061A.2.2,0,0,1-289.8,367h7.393a.266.266,0,0,1,.22.22v1.353a.266.266,0,0,1-.22.219h-5.443v1.92h4.971a.268.268,0,0,1,.221.22v1.353a.268.268,0,0,1-.221.221Zm9.156.754a.274.274,0,0,1,.315.236c.158.8.834,1.3,2.329,1.3,1.51,0,2.186-.566,2.186-1.243,0-.44-.315-.834-1.258-.912l-2.454-.2c-1.919-.157-2.942-1.038-2.942-2.453,0-1.636,1.432-3.147,4.217-3.147,2.879,0,4.137,1.337,4.137,2.847a.274.274,0,0,1-.3.268h-1.557a.242.242,0,0,1-.283-.236c-.095-.549-.63-1.084-2.014-1.084-1.321,0-2.061.535-2.061,1.227,0,.424.283.739,1.149.8l2.438.2c2.2.189,3.067,1.289,3.067,2.6,0,1.479-1.274,3.13-4.325,3.13-2.88,0-4.469-1.369-4.469-2.925v-.126a.287.287,0,0,1,.3-.283Zm21.413-1.856c.236,0,.283.095.283.236v.063a4.512,4.512,0,0,1-1.053,2.942l1.762,1.541c.047.048.079.079.079.143,0,.047-.031.11-.141.11h-2.03a.451.451,0,0,1-.3-.095l-.691-.6a5.3,5.3,0,0,1-2.99.849c-2.627,0-3.76-1.463-3.76-2.705a2.706,2.706,0,0,1,1.809-2.47,2.769,2.769,0,0,1-1.117-2c0-1.431,1.164-2.58,3.162-2.58,2.045,0,3.13,1.337,3.13,2.58,0,1.133-.582,1.794-2.077,2.47l1.731,1.479a3.24,3.24,0,0,0,.471-1.746c0-.141.079-.22.251-.22Zm-3.492,3.13-2.155-1.871c-.866.361-1.18.786-1.18,1.2,0,.519.582,1.038,1.746,1.038A3.346,3.346,0,0,0-260.772,374.535Zm-1.84-3.885c1.07-.426,1.494-.8,1.494-1.228,0-.456-.409-.881-1.148-.881s-1.18.409-1.18.881C-263.446,369.864-263.163,370.162-262.612,370.651Zm22.01,1.069a4.912,4.912,0,0,1-5.207,4.877,4.911,4.911,0,0,1-5.207-4.877,4.94,4.94,0,0,1,5.207-4.877A4.94,4.94,0,0,1-240.6,371.72Zm-8.275,0a2.969,2.969,0,0,0,3.068,3.083,2.969,2.969,0,0,0,3.067-3.083,2.969,2.969,0,0,0-3.067-3.083A2.969,2.969,0,0,0-248.877,371.72Zm21.176,4.719h-1.306l-2.171-5.161c-.11-.267-.236-.661-.236-.661h-.031s-.11.394-.221.661l-2.187,5.161h-1.3l-4.2-9.157a.526.526,0,0,1-.063-.189c0-.046.031-.094.126-.094h1.888c.189,0,.22,0,.314.2l2.124,4.516a12.348,12.348,0,0,1,.5,1.369h.063a8.789,8.789,0,0,1,.377-1.1l2.093-4.987h1.007l2.092,4.987a9.8,9.8,0,0,1,.378,1.1h.063a12.343,12.343,0,0,1,.5-1.369l2.124-4.516c.094-.189.126-.2.314-.2h1.888c.095,0,.126.047.126.094a.523.523,0,0,1-.062.189Zm14,0-4.814-4.908c-.5-.5-1.07-1.212-1.07-1.212h-.047v5.931a.2.2,0,0,1-.189.189h-1.762a.2.2,0,0,1-.189-.189v-9.061a.2.2,0,0,1,.189-.189h1.447l4.767,4.845a15.743,15.743,0,0,1,1.1,1.274h.063v-5.931a.2.2,0,0,1,.189-.189h1.762a.2.2,0,0,1,.189.189v9.061a.2.2,0,0,1-.189.189Zm6.4-3.932v2.138h5.537a.268.268,0,0,1,.22.221v1.353a.268.268,0,0,1-.22.22h-7.488a.2.2,0,0,1-.189-.189v-9.061a.2.2,0,0,1,.189-.189h7.394a.266.266,0,0,1,.22.22v1.353a.266.266,0,0,1-.22.219h-5.443v1.92h4.971a.268.268,0,0,1,.221.22v1.353a.268.268,0,0,1-.221.221Zm7.819-5.318a.2.2,0,0,1,.189-.189h4.373c2.3,0,3.933,1.243,3.933,3.3a2.908,2.908,0,0,1-2.124,2.832v.031a5.516,5.516,0,0,1,.5.629l1.589,2.329a.4.4,0,0,1,.094.2c0,.062-.031.11-.126.11h-2.093a.345.345,0,0,1-.251-.158l-1.92-2.8h-2.029v2.769a.2.2,0,0,1-.189.189h-1.762a.2.2,0,0,1-.189-.189Zm2.14,1.6v2.99h2.281c1.18,0,1.935-.551,1.935-1.479s-.755-1.51-1.935-1.51Zm9.849,4.469a.274.274,0,0,1,.314.236c.158.8.834,1.3,2.329,1.3,1.51,0,2.186-.566,2.186-1.243,0-.44-.314-.834-1.258-.912l-2.454-.2c-1.919-.157-2.942-1.038-2.942-2.453,0-1.636,1.432-3.147,4.216-3.147,2.879,0,4.137,1.337,4.137,2.847a.273.273,0,0,1-.3.268h-1.558a.242.242,0,0,1-.283-.236c-.095-.549-.63-1.084-2.014-1.084-1.321,0-2.061.535-2.061,1.227,0,.424.284.739,1.149.8l2.438.2c2.2.189,3.067,1.289,3.067,2.6,0,1.479-1.274,3.13-4.326,3.13-2.88,0-4.468-1.369-4.468-2.925v-.126a.286.286,0,0,1,.3-.283Zm18.816,2.989a.2.2,0,0,1-.189.189h-1.762a.2.2,0,0,1-.189-.189V372.9h-5.428v3.351a.2.2,0,0,1-.189.189h-1.762a.2.2,0,0,1-.189-.189v-9.061a.2.2,0,0,1,.189-.189h1.762a.2.2,0,0,1,.189.189v3.917h5.428v-3.917a.2.2,0,0,1,.189-.189h1.762a.2.2,0,0,1,.189.189Zm4.768,0a.2.2,0,0,1-.189.189h-1.762a.2.2,0,0,1-.189-.189v-9.061a.2.2,0,0,1,.189-.189h1.762a.2.2,0,0,1,.189.189Zm2.817.189a.2.2,0,0,1-.19-.189v-9.061a.2.2,0,0,1,.19-.189h4.027c2.281,0,3.917,1.368,3.917,3.539,0,2.187-1.7,3.477-3.917,3.477h-2.076v2.233a.2.2,0,0,1-.189.189Zm1.95-7.647v3.524h1.9a1.736,1.736,0,0,0,1.95-1.778,1.737,1.737,0,0,0-1.95-1.747Z" transform="translate(-48.546 -3.882)" fill="#004542"/>
    <path id="Trazado_19" data-name="Trazado 19" d="M-388.543,358.817c.786-3,1.019-6.308-.678-8.568-1.037-1.382-2.714-2.259-5.288-2.737a.03.03,0,0,1-.013-.053c.989-.694,1.984-1.387,2.963-2.069,9.767-6.8,15.275-10.782,14.928-13.573a2.612,2.612,0,0,0-1.8-1.956c-4.481-1.573-10.318.057-14.866,4.333a1.1,1.1,0,0,0-.135,1.444l.49.669a.355.355,0,0,0,.54.037c4.1-4.116,9.777-5.649,12.853-4.756.584.17.817.389.868.653.094.477-.412,1.146-4.039,4.078-2.671,2.159-6.264,4.66-10.067,7.309-1.375.957-2.781,1.936-4.159,2.91q.27-.47.566-1c2.147-3.837,2.149-7.554,0-9.942-3.054-3.4-11.309-2.181-12.24-2.03-11.372,1.84-21.625,6.941-33.244,16.537-3.413,2.818-9.424,8.422-9.484,8.479l-.163.152a.964.964,0,0,0,.509,1.658l.22.035A88.6,88.6,0,0,0-436.9,361.6c1.984,0,3.961-.079,5.973-.236a.029.029,0,0,1,.023.05c-2.271,1.847-6.765,5.349-9.57,6.523a8.936,8.936,0,0,1-3.5.984,2.579,2.579,0,0,1,.183-.551,24.208,24.208,0,0,1,2.389-3.829.347.347,0,0,0-.187-.542l-1-.276a1.075,1.075,0,0,0-1.175.421,22.257,22.257,0,0,0-2,3.369c-.693,1.591-.3,2.475.158,2.937.96.973,2.741.814,5.958-.533,4.073-1.706,10.933-7.519,11.518-8.018h0c.439-.325.879-.641,1.32-.953a.027.027,0,0,1,.014-.006c.669-.084,1.344-.173,2.03-.273a63.026,63.026,0,0,0,27.132-11l1.032-.277c2.978.3,4.785.993,5.657,2.153.942,1.255,1.084,3.794.294,6.843A20.26,20.26,0,0,1-397.1,368.4c-1.573,1.418-3.167,2.293-3.612,2.014-.317-.258.1-1.181.383-1.9,1.886-4.738,4.364-10.966,2.479-14.264a1.115,1.115,0,0,0-1.741-.26l-.323.309a.5.5,0,0,0-.043.693c1.862,2.106-.861,8.95-2.366,12.729-.239.6-1.337,3.642.515,4.573a2.669,2.669,0,0,0,1.213.281c1.626,0,3.428-1.371,4.876-2.531A22.041,22.041,0,0,0-388.543,358.817Zm-59.63-.179a.029.029,0,0,1-.018-.05c2.032-1.867,5.448-4.973,7.7-6.831,11.308-9.341,21.245-14.3,32.219-16.074,3.07-.5,8.581-.57,10.3,1.345,2.226,2.48.348,6.338-.28,7.461-.615,1.1-1.094,1.955-1.6,2.691a.028.028,0,0,1-.022.013c-8.137.6-19.341,5.885-27.707,11.677a.03.03,0,0,1-.013.005A76.284,76.284,0,0,1-448.173,358.638Zm25.822-.637c7.418-4.554,14.628-7.318,20.007-8.306a.03.03,0,0,1,.024.054,57.16,57.16,0,0,1-6.5,3.935h0a61.6,61.6,0,0,1-13.5,4.375A.032.032,0,0,1-422.351,358Z" fill="#996e43"/>
  </g>
</svg>
