<svg xmlns="http://www.w3.org/2000/svg" xmlns:xlink="http://www.w3.org/1999/xlink" width="24" height="24" viewBox="0 0 24 24">
  <defs>
    <clipPath id="clip-path">
      <rect id="Rectángulo_1903" data-name="Rectángulo 1903" width="24" height="24" fill="none"/>
    </clipPath>
  </defs>
  <g id="telf-icon" clip-path="url(#clip-path)">
    <path id="Trazado_1165" data-name="Trazado 1165" d="M14.452,1.385a.625.625,0,1,0-.138,1.242,7.983,7.983,0,0,1,7.06,7.037.625.625,0,1,0,1.242-.14,9.234,9.234,0,0,0-8.164-8.139Zm.05,3.83a.625.625,0,1,0-.238,1.227,4.159,4.159,0,0,1,3.288,3.281.625.625,0,1,0,1.227-.24A5.4,5.4,0,0,0,14.5,5.215Z" fill="#996e43" stroke="#363636"/>
    <path id="Trazado_1166" data-name="Trazado 1166" d="M3.859,2.348a2.4,2.4,0,0,0-.965.192,2.424,2.424,0,0,0-.8.565,2.582,2.582,0,0,0-.523.787,2.237,2.237,0,0,0-.17.68,3.154,3.154,0,0,0-.011.547A19.837,19.837,0,0,0,4.366,13.6a19.486,19.486,0,0,0,5.944,5.947,20.443,20.443,0,0,0,4.636,2.222,14.015,14.015,0,0,0,4.05.85,3.332,3.332,0,0,0,.939-.133,2.464,2.464,0,0,0,1.524-1.42,2.337,2.337,0,0,0,.194-1l0-2.9a2.47,2.47,0,0,0-.624-1.675,2.4,2.4,0,0,0-1.5-.83,10.5,10.5,0,0,1-2.59-.634,2.56,2.56,0,0,0-.706-.156,2.514,2.514,0,0,0-.8.044,2.85,2.85,0,0,0-1.192.641l-.017.016-.849.877A13.966,13.966,0,0,1,8.5,10.605l.943-.92.022-.027a2.858,2.858,0,0,0,.586-1.14,2.783,2.783,0,0,0-.1-1.411A15.006,15.006,0,0,1,9.3,4.462a2.666,2.666,0,0,0-.745-1.413,2.452,2.452,0,0,0-1.681-.7H3.859ZM3.39,3.687A1.181,1.181,0,0,1,3.859,3.6H6.874a1.207,1.207,0,0,1,.8.34,1.438,1.438,0,0,1,.388.719,16.152,16.152,0,0,0,.72,2.895,1.305,1.305,0,0,1,.06.324,1.353,1.353,0,0,1-.013.375,1.587,1.587,0,0,1-.312.59L7.282,10.05a.625.625,0,0,0-.11.75,15.222,15.222,0,0,0,6.019,5.985.625.625,0,0,0,.749-.114l1.15-1.19a1.6,1.6,0,0,1,.643-.346,1.279,1.279,0,0,1,.39-.014,1.307,1.307,0,0,1,.346.069,11.774,11.774,0,0,0,2.894.715,1.149,1.149,0,0,1,.73.423,1.219,1.219,0,0,1,.308.844l0,2.9a1.1,1.1,0,0,1-.095.51,1.332,1.332,0,0,1-.311.457,1.35,1.35,0,0,1-.448.262,2.118,2.118,0,0,1-.554.073,12.89,12.89,0,0,1-3.647-.785A19.2,19.2,0,0,1,11,18.507a18.254,18.254,0,0,1-5.587-5.584,18.587,18.587,0,0,1-2.785-7.9A1.932,1.932,0,0,1,2.642,4.7a1.084,1.084,0,0,1,.062-.29,1.357,1.357,0,0,1,.288-.441,1.19,1.19,0,0,1,.4-.285Z" fill="#996e43" stroke="#363636" fill-rule="evenodd"/>
  </g>
</svg>
